<svg xmlns="http://www.w3.org/2000/svg" viewBox="0 0 24 24" fill="#000000">
  <title>MoonshotAI</title>
  <path fill-rule="evenodd" d="M6.49 2.838c.418-.14.874.019 1.12.39l4.588 6.927h3.264l-2.11-4.912a.938.938 0 0 1 .81-1.338l3.39-.117a.938.938 0 0 1 .874.576l3.526 8.205a.938.938 0 0 1-.177 1.014L17.6 17.935a.938.938 0 0 1-1.015.235l-.054-.021a.938.938 0 0 1-.61-.877V14.03h-3.264l2.11 4.911a.938.938 0 0 1-.81 1.339l-3.39.117a.938.938 0 0 1-.874-.576L6.167 11.616a.938.938 0 0 1 .177-1.014l4.175-4.352a.938.938 0 0 1 1.015-.235l.054.021a.938.938 0 0 1 .61.877v3.242h1.266l-3.61-5.45-3.866 1.294a.938.938 0 0 1-1.193-.549L3.44 1.72a.938.938 0 0 1 .583-1.165l2.468-.826Zm3.708 3.595v2.66l1.64-1.708-1.64-.952Zm3.604 10.974v-2.66l-1.64 1.708 1.64.952Z" clip-rule="evenodd"/>
</svg>
